<svg id="instagram" xmlns="http://www.w3.org/2000/svg" width="28.55" height="28.55" viewBox="0 0 28.55 28.55">
  <path id="instagram" d="M14.275,0C10.4,0,9.913.018,8.39.086A10.526,10.526,0,0,0,4.925.749,6.991,6.991,0,0,0,2.4,2.4,6.965,6.965,0,0,0,.749,4.925,10.5,10.5,0,0,0,.086,8.39C.014,9.913,0,10.4,0,14.275s.018,4.362.086,5.885a10.533,10.533,0,0,0,.664,3.465A7,7,0,0,0,2.4,26.154,6.981,6.981,0,0,0,4.925,27.8a10.539,10.539,0,0,0,3.465.664c1.523.071,2.007.086,5.885.086s4.362-.018,5.885-.086a10.563,10.563,0,0,0,3.465-.664A7.3,7.3,0,0,0,27.8,23.625a10.532,10.532,0,0,0,.664-3.465c.071-1.523.086-2.007.086-5.885s-.018-4.362-.086-5.885A10.557,10.557,0,0,0,27.8,4.925,7.006,7.006,0,0,0,26.154,2.4,6.955,6.955,0,0,0,23.625.749,10.5,10.5,0,0,0,20.16.086C18.637.014,18.153,0,14.275,0Zm0,2.569c3.81,0,4.265.019,5.769.084a7.865,7.865,0,0,1,2.649.494A4.7,4.7,0,0,1,25.4,5.856a7.881,7.881,0,0,1,.491,2.649c.068,1.506.083,1.958.083,5.769s-.018,4.265-.088,5.769a8.033,8.033,0,0,1-.5,2.649,4.533,4.533,0,0,1-1.069,1.644A4.453,4.453,0,0,1,22.678,25.4a7.939,7.939,0,0,1-2.659.491c-1.516.068-1.962.083-5.78.083s-4.266-.018-5.78-.088a8.094,8.094,0,0,1-2.66-.5,4.421,4.421,0,0,1-1.64-1.069,4.334,4.334,0,0,1-1.071-1.642,8.1,8.1,0,0,1-.5-2.659c-.054-1.5-.073-1.962-.073-5.762s.019-4.266.073-5.783a8.092,8.092,0,0,1,.5-2.658A4.232,4.232,0,0,1,4.159,4.174,4.222,4.222,0,0,1,5.8,3.106a7.9,7.9,0,0,1,2.642-.5c1.517-.054,1.963-.071,5.78-.071l.054.036Zm0,4.375a7.33,7.33,0,1,0,7.33,7.33,7.33,7.33,0,0,0-7.33-7.33Zm0,12.088a4.758,4.758,0,1,1,4.758-4.758A4.757,4.757,0,0,1,14.275,19.033ZM23.608,6.656A1.713,1.713,0,1,1,21.9,4.944,1.714,1.714,0,0,1,23.608,6.656Z" fill="#afafaf"/>
</svg>
