<svg id="youtube" xmlns="http://www.w3.org/2000/svg" width="40.275" height="28.377" viewBox="0 0 40.275 28.377">
  <path id="youtube" d="M39.433,7.977a5.061,5.061,0,0,0-3.561-3.585c-3.14-.847-15.734-.847-15.734-.847s-12.594,0-15.736.847A5.063,5.063,0,0,0,.842,7.977C0,11.139,0,17.734,0,17.734s0,6.6.842,9.757A5.061,5.061,0,0,0,4.4,31.075c3.14.847,15.734.847,15.734.847s12.594,0,15.736-.847a5.06,5.06,0,0,0,3.561-3.585c.841-3.162.841-9.757.841-9.757S40.275,11.139,39.433,7.977ZM16.018,23.721V11.746l10.527,5.988Z" transform="translate(0 -3.545)" fill="#afafaf"/>
</svg>
