<svg aria-hidden="true" style="position: absolute; width: 0; height: 0; overflow: hidden;" version="1.1" xmlns="http://www.w3.org/2000/svg" xmlns:xlink="http://www.w3.org/1999/xlink">
    <symbol id="logo" width="217" height="50" viewBox="0 0 217 50">
        <g id="LOGO_Placeholder" transform="translate(-177 -26)">
        <g id="Rectangle_3" data-name="Rectangle 3" transform="translate(177 41)" fill="#fff" stroke="#ff4359" stroke-width="6">
        <rect width="35" height="35" stroke="none"/>
        <rect x="3" y="3" width="29" height="29" fill="none"/>
        </g>
        <g id="Ellipse_1" data-name="Ellipse 1" transform="translate(197 26)" fill="#fff" stroke="#ff4359" stroke-width="6">
        <circle cx="15" cy="15" r="15" stroke="none"/>
        <circle cx="15" cy="15" r="12" fill="none"/>
        </g>
        <text id="Logoipsum" transform="translate(244 54)" font-size="24" font-family="Montserrat-Bold, Montserrat" font-weight="700"><tspan x="0" y="0">LOGOIPSUM</tspan></text>
        <text id="Dolor_sit_amet" data-name="Dolor sit amet" transform="translate(244 68)" fill="#ed7d8a" font-size="12" font-family="Montserrat-Bold, Montserrat" font-weight="700"><tspan x="0" y="0">DOLOR SIT AMET</tspan></text>
        </g>
    </symbol>
    <symbol id="arrow" width="28.2" height="48" viewBox="0 0 28.2 48">
        <path id="arrow-left" d="M128.912,22.127,107.551.767a2.631,2.631,0,0,0-3.714,0l-1.573,1.573a2.629,2.629,0,0,0,0,3.714L120.2,23.99,102.245,41.947a2.632,2.632,0,0,0,0,3.714l1.573,1.572a2.631,2.631,0,0,0,3.714,0l21.381-21.38a2.65,2.65,0,0,0,0-3.726Z" transform="translate(129.678 48) rotate(180)" fill="currentColor"/>
    </symbol>
    <symbol id="facebook" width="28.55" height="28.377" viewBox="0 0 28.55 28.377">
        <path id="facebook" d="M28.55,14.348a14.275,14.275,0,1,0-16.505,14.1V18.475H8.42V14.347h3.625V11.2c0-3.577,2.132-5.554,5.392-5.554a21.91,21.91,0,0,1,3.2.28V9.442h-1.8A2.063,2.063,0,0,0,16.5,11.671v2.677h3.959l-.633,4.128H16.5V28.45A14.28,14.28,0,0,0,28.55,14.348Z" transform="translate(0 -0.073)" fill="currentColor"/>
    </symbol>
    <symbol id="instagram" width="28.55" height="28.55" viewBox="0 0 28.55 28.55">
        <path id="instagram" d="M14.275,0C10.4,0,9.913.018,8.39.086A10.526,10.526,0,0,0,4.925.749,6.991,6.991,0,0,0,2.4,2.4,6.965,6.965,0,0,0,.749,4.925,10.5,10.5,0,0,0,.086,8.39C.014,9.913,0,10.4,0,14.275s.018,4.362.086,5.885a10.533,10.533,0,0,0,.664,3.465A7,7,0,0,0,2.4,26.154,6.981,6.981,0,0,0,4.925,27.8a10.539,10.539,0,0,0,3.465.664c1.523.071,2.007.086,5.885.086s4.362-.018,5.885-.086a10.563,10.563,0,0,0,3.465-.664A7.3,7.3,0,0,0,27.8,23.625a10.532,10.532,0,0,0,.664-3.465c.071-1.523.086-2.007.086-5.885s-.018-4.362-.086-5.885A10.557,10.557,0,0,0,27.8,4.925,7.006,7.006,0,0,0,26.154,2.4,6.955,6.955,0,0,0,23.625.749,10.5,10.5,0,0,0,20.16.086C18.637.014,18.153,0,14.275,0Zm0,2.569c3.81,0,4.265.019,5.769.084a7.865,7.865,0,0,1,2.649.494A4.7,4.7,0,0,1,25.4,5.856a7.881,7.881,0,0,1,.491,2.649c.068,1.506.083,1.958.083,5.769s-.018,4.265-.088,5.769a8.033,8.033,0,0,1-.5,2.649,4.533,4.533,0,0,1-1.069,1.644A4.453,4.453,0,0,1,22.678,25.4a7.939,7.939,0,0,1-2.659.491c-1.516.068-1.962.083-5.78.083s-4.266-.018-5.78-.088a8.094,8.094,0,0,1-2.66-.5,4.421,4.421,0,0,1-1.64-1.069,4.334,4.334,0,0,1-1.071-1.642,8.1,8.1,0,0,1-.5-2.659c-.054-1.5-.073-1.962-.073-5.762s.019-4.266.073-5.783a8.092,8.092,0,0,1,.5-2.658A4.232,4.232,0,0,1,4.159,4.174,4.222,4.222,0,0,1,5.8,3.106a7.9,7.9,0,0,1,2.642-.5c1.517-.054,1.963-.071,5.78-.071l.054.036Zm0,4.375a7.33,7.33,0,1,0,7.33,7.33,7.33,7.33,0,0,0-7.33-7.33Zm0,12.088a4.758,4.758,0,1,1,4.758-4.758A4.757,4.757,0,0,1,14.275,19.033ZM23.608,6.656A1.713,1.713,0,1,1,21.9,4.944,1.714,1.714,0,0,1,23.608,6.656Z" fill="currentColor"/>
    </symbol>
    <symbol id="youtube" width="40.275" height="28.377" viewBox="0 0 40.275 28.377">
        <path id="youtube" d="M39.433,7.977a5.061,5.061,0,0,0-3.561-3.585c-3.14-.847-15.734-.847-15.734-.847s-12.594,0-15.736.847A5.063,5.063,0,0,0,.842,7.977C0,11.139,0,17.734,0,17.734s0,6.6.842,9.757A5.061,5.061,0,0,0,4.4,31.075c3.14.847,15.734.847,15.734.847s12.594,0,15.736-.847a5.06,5.06,0,0,0,3.561-3.585c.841-3.162.841-9.757.841-9.757S40.275,11.139,39.433,7.977ZM16.018,23.721V11.746l10.527,5.988Z" transform="translate(0 -3.545)" fill="currentColor"/>
    </symbol>
    <symbol id="close" width="24" height="24" viewBox="0 0 24 24">
        <path id="close" d="M15.96,12l7.425-7.425a2.1,2.1,0,0,0,0-2.969l-.99-.99a2.1,2.1,0,0,0-2.97,0L12,8.041,4.576.615a2.1,2.1,0,0,0-2.969,0l-.991.99a2.1,2.1,0,0,0,0,2.97L8.041,12,.617,19.425a2.1,2.1,0,0,0,0,2.97l.99.99a2.1,2.1,0,0,0,2.969,0L12,15.96l7.424,7.425a2.1,2.1,0,0,0,2.97,0l.99-.99a2.1,2.1,0,0,0,0-2.97Zm0,0" fill="currentColor"/>
    </symbol>
    <symbol id="check" width="9.95" height="7.726" viewBox="0 0 9.95 7.726">
      <path id="check" d="M3.81,7.983a.508.508,0,0,1-.718,0L.223,5.115a.762.762,0,0,1,0-1.078l.359-.359a.762.762,0,0,1,1.078,0L3.451,5.469,8.29.63a.762.762,0,0,1,1.078,0l.359.359a.762.762,0,0,1,0,1.078Zm0,0" transform="translate(0 -0.406)"/>
    </symbol>
</svg>